<?xml version="1.0" encoding="UTF-8" standalone="no"?>
<!-- Created with Inkscape (http://www.inkscape.org/) -->

<svg
   xmlns:dc="http://purl.org/dc/elements/1.1/"
   xmlns:cc="http://creativecommons.org/ns#"
   xmlns:rdf="http://www.w3.org/1999/02/22-rdf-syntax-ns#"
   xmlns:svg="http://www.w3.org/2000/svg"
   xmlns="http://www.w3.org/2000/svg"
   xmlns:sodipodi="http://sodipodi.sourceforge.net/DTD/sodipodi-0.dtd"
   xmlns:inkscape="http://www.inkscape.org/namespaces/inkscape"
   width="48"
   height="48"
   viewBox="0 0 48 48.000001"
   id="svg2"
   version="1.1"
   inkscape:version="0.91 r13725"
   enable-background="new"
   sodipodi:docname="waves.svg">
  <defs
     id="defs4">
    <filter
       inkscape:collect="always"
       style="color-interpolation-filters:sRGB"
       id="filter7299">
      <feBlend
         inkscape:collect="always"
         mode="screen"
         in2="BackgroundImage"
         id="feBlend7301" />
    </filter>
  </defs>
  <sodipodi:namedview
     id="base"
     pagecolor="#ffffff"
     bordercolor="#666666"
     borderopacity="1.0"
     inkscape:pageopacity="0.0"
     inkscape:pageshadow="2"
     inkscape:zoom="10.052481"
     inkscape:cx="9.3714789"
     inkscape:cy="29.657934"
     inkscape:document-units="px"
     inkscape:current-layer="layer1"
     showgrid="false"
     units="px"
     inkscape:window-width="1440"
     inkscape:window-height="847"
     inkscape:window-x="0"
     inkscape:window-y="28"
     inkscape:window-maximized="1">
    <inkscape:grid
       type="xygrid"
       id="grid7303" />
  </sodipodi:namedview>
  <metadata
     id="metadata7">
    <rdf:RDF>
      <cc:Work
         rdf:about="">
        <dc:format>image/svg+xml</dc:format>
        <dc:type
           rdf:resource="http://purl.org/dc/dcmitype/StillImage" />
        <dc:title />
      </cc:Work>
    </rdf:RDF>
  </metadata>
  <g
     inkscape:label="Layer 1"
     inkscape:groupmode="layer"
     id="layer1"
     transform="translate(0,-1004.3622)"
     style="opacity:0.98;filter:url(#filter7299)">
    <path
       style="fill:none;fill-rule:evenodd;stroke:#535353;stroke-width:1px;stroke-linecap:butt;stroke-linejoin:miter;stroke-opacity:1"
       d="m 7.1203233,1032.3744 c -0.2541089,-11.4398 7.2539987,-14.5628 10.7622527,-13.8573 -1.87044,3.1584 -5.942954,6.7513 -1.477172,11.3953 3.346702,-11.5397 8.181225,-12.395 11.254643,-11.325 -0.998712,3.0041 -5.174717,5.4464 -1.055123,9.7775 3.845336,-8.7675 7.690673,-10.6733 11.536009,-9.9182 -3.020876,4.9685 -3.936878,9.7998 1.617855,14.209 2.14752,1.8125 0.567042,5.6949 0.567042,5.6949 l -32.1307547,0.119 c 0,0 -1.0140417,-3.1606 -1.074752,-6.0952 z"
       id="path7331"
       inkscape:connector-curvature="0"
       sodipodi:nodetypes="cccccccccc" />
    <g
       id="g7331"
       transform="matrix(8.4946423,0,0,8.4756928,-125.87162,-7771.527)"
       style="fill:#2a2a2a;fill-opacity:1;stroke:#535353;stroke-width:0.23570555;stroke-linecap:round;stroke-linejoin:miter;stroke-miterlimit:4;stroke-dasharray:none;stroke-opacity:1">
      <g
         id="g7327"
         style="fill:#2a2a2a;fill-opacity:1;stroke:#535353;stroke-width:0.23570555;stroke-linecap:round;stroke-linejoin:miter;stroke-miterlimit:4;stroke-dasharray:none;stroke-opacity:1">
        <path
           style="fill:none;fill-opacity:0;fill-rule:evenodd;stroke:#535353;stroke-width:0.94282222;stroke-linecap:round;stroke-linejoin:miter;stroke-miterlimit:4;stroke-dasharray:none;stroke-opacity:1"
           d="m 24,12 c -4.619036,8.88187 -8.213749,12.719373 -8,16 0,4.4184 3.58172,8 8,8 4.025207,0 7.954738,-3.587557 8,-8 0.05347,-5.21235 -5.514047,-9.572823 -8,-16 z"
           transform="matrix(0.125,0,0,0.125,9,1034.8622)"
           id="path7325"
           inkscape:connector-curvature="0"
           sodipodi:nodetypes="ccssc" />
      </g>
    </g>
    <path
       style="opacity:1;fill:none;fill-opacity:0;stroke:#535353;stroke-width:0.99999994;stroke-linecap:round;stroke-linejoin:miter;stroke-miterlimit:4;stroke-dasharray:none;stroke-opacity:1"
       id="path7465"
       sodipodi:type="arc"
       sodipodi:cx="-23.663244"
       sodipodi:cy="1030.1639"
       sodipodi:rx="6.0824518"
       sodipodi:ry="5.0901966"
       sodipodi:start="2.0943951"
       sodipodi:end="3.1415927"
       d="m -26.70447,1034.5722 a 6.0824518,5.0901966 0 0 1 -3.041226,-4.4083"
       sodipodi:open="true" />
    <path
       style="opacity:1;fill:none;fill-opacity:0;stroke:#535353;stroke-width:1;stroke-linecap:butt;stroke-linejoin:miter;stroke-miterlimit:4;stroke-dasharray:none;stroke-opacity:1"
       id="path7469"
       sodipodi:type="arc"
       sodipodi:cx="-24.177299"
       sodipodi:cy="1038.2408"
       sodipodi:rx="12.418712"
       sodipodi:ry="2.9086711"
       sodipodi:start="5.4875362"
       sodipodi:end="3.8100948"
       d="m -15.486421,1036.1631 a 12.418712,2.9086711 0 0 1 0.483308,4.0382 12.418712,2.9086711 0 0 1 -17.212948,0.2566 12.418712,2.9086711 0 0 1 -1.706834,-4.0199"
       sodipodi:open="true" />
    <path
       sodipodi:open="true"
       d="m -10.801671,1034.5423 a 18.862711,6.1375136 0 0 1 0.734094,8.5207 18.862711,6.1375136 0 0 1 -26.144649,0.5416 18.862711,6.1375136 0 0 1 -2.592501,-8.4823"
       sodipodi:end="3.8100948"
       sodipodi:start="5.4875362"
       sodipodi:ry="6.1375136"
       sodipodi:rx="18.862711"
       sodipodi:cy="1038.9264"
       sodipodi:cx="-24.002197"
       sodipodi:type="arc"
       id="path7471"
       style="opacity:1;fill:none;fill-opacity:0;stroke:#535353;stroke-width:0.99999994;stroke-linecap:butt;stroke-linejoin:miter;stroke-miterlimit:4;stroke-dasharray:none;stroke-opacity:1" />
  </g>
</svg>
